:SAMPLES-PER-SECOND 30
:FULLY-SPECIFIED
:DEGREES
386
root  13.7583 33.2338 -3.48089 -1.68144 -72.9189 7.99113
RightUpLeg  5.14644 -7.85463 -5.98153
RightLeg  26.1898 -8.9055 -3.67285
RightFoot  -9.77528 0.113734 1.70763
RightToes  -31.6561 -0.15549 -0.26331
Spine  4.62733 1.15615 -1.11699
Spine1  8.38515 3.60695 -3.75882
HEad  -21.2747 -9.87549 38.1392
LeftShoulder1  0 -2.42657e-020 -4.95415e-022
LeftArm  -64.1615 19.7562 -82.1094
LeftForeArm  77.3762 -11.204 -1.91154
LeftHand  0.0694498 -8.71816 -1.28203
RightShoulder  0 2.42657e-020 1.07489e-018
RightArm  -43.4219 0.556864 84.9926
RightForeArm  62.1822 14.2271 2.5099
RightHand  -1.53338 21.8196 -7.57532
LeftUpLeg  -17.7967 26.2632 -10.1045
LeftLeg  18.6134 8.75831 2.32305
LeftFoot  -2.98317 -0.0105993 -0.407064
LeftToes  -1.29919 1.33192e-006 1.13262e-007
387
root  14.6075 33.1946 -3.82322 -5.21742 -77.181 11.6451
RightUpLeg  5.31819 -6.46446 -7.18753
RightLeg  24.3564 -7.64768 -2.87683
RightFoot  -4.32575 0.0137577 0.741944
RightToes  -35.7478 -0.185437 -0.289864
Spine  4.93204 1.33539 -0.916663
Spine1  8.86844 4.2374 -3.78246
HEad  -18.4116 -5.53925 37.1583
LeftShoulder1  0 -2.42657e-020 -4.95415e-022
LeftArm  -61.8954 19.8892 -83.5584
LeftForeArm  75.2272 -14.0963 -2.45108
LeftHand  0.11383 -9.03718 -1.81164
RightShoulder  0 2.42657e-020 1.07489e-018
RightArm  -41.9409 4.65729 85.4453
RightForeArm  62.8628 13.9002 2.44722
RightHand  -1.56307 21.66 -7.78961
LeftUpLeg  -19.6046 29.0672 -11.0915
LeftLeg  18.4982 10.0771 2.64781
LeftFoot  -2.13871 -0.00558578 -0.299258
LeftToes  -0.583775 1.33192e-006 1.13262e-007
388
root  15.5098 33.1423 -4.21237 -11.6708 -80.795 18.1628
RightUpLeg  5.07983 -3.95026 -7.70431
RightLeg  21.9313 -6.66336 -2.192
RightFoot  0.768634 0.00191109 0.0925542
RightToes  -47.4093 -0.280209 -0.353039
Spine  5.19795 1.37457 -0.65518
Spine1  9.36017 4.52604 -3.62743
HEad  -15.2386 -4.6817 35.9584
LeftShoulder1  0 -2.42657e-020 -4.95415e-022
LeftArm  -58.8355 18.7538 -84.3885
LeftForeArm  74.9636 -15.4058 -2.69786
LeftHand  0.20092 -9.36826 -2.82381
RightShoulder  0 2.42657e-020 1.07489e-018
RightArm  -39.4909 7.92557 86.3105
RightForeArm  62.3155 14.6133 2.582
RightHand  -1.58339 21.5558 -7.9361
LeftUpLeg  -21.5711 31.8284 -12.1368
LeftLeg  18.3673 10.9225 2.84075
LeftFoot  -1.01227 -0.000652044 -0.0738201
LeftToes  -0.50887 1.33192e-006 1.13262e-007
389
root  16.4269 33.0977 -4.65197 -19.0418 -83.3819 25.4456
RightUpLeg  4.40439 -0.998784 -7.17383
RightLeg  19.6064 -6.61172 -1.8813
RightFoot  -1.71543 -0.000295477 0.357958
RightToes  -44.1077 -0.252101 -0.337131
Spine  5.53915 1.18094 -0.284775
Spine1  10.0742 4.28728 -3.23843
HEad  -11.6763 -6.07753 34.7314
LeftShoulder1  0 -2.42657e-020 -4.95415e-022
LeftArm  -54.6529 16.3994 -84.5169
LeftForeArm  75.6685 -15.7971 -2.77
LeftHand  0.240649 -9.56745 -3.2473
RightShoulder  0 2.42657e-020 1.07489e-018
RightArm  -35.7253 10.1812 87.3772
RightForeArm  59.3518 16.3285 2.91373
RightHand  -1.5976 21.556 -8.01028
LeftUpLeg  -23.557 33.8655 -12.7229
LeftLeg  18.3492 11.5789 3.00515
LeftFoot  0.292916 -0.000584537 0.22867
LeftToes  -0.206017 1.33192e-006 1.13262e-007
390
root  17.3619 33.0309 -5.07942 -32.6882 -85.0396 38.8936
RightUpLeg  3.37163 -0.196365 -7.14186
RightLeg  18.4954 -6.48165 -1.70929
RightFoot  -4.2165 0.00874503 0.615206
RightToes  -41.2595 -0.228622 -0.322126
Spine  5.83583 0.835548 -0.0551965
Spine1  10.7195 3.6462 -2.98816
HEad  -8.30029 -8.4533 33.2121
LeftShoulder1  0 -2.42657e-020 -4.95415e-022
LeftArm  -49.7152 13.3649 -83.9393
LeftForeArm  74.8294 -15.631 -2.74089
LeftHand  0.301445 -9.69497 -3.92609
RightShoulder  0 2.42657e-020 1.07489e-018
RightArm  -31.6318 11.2165 88.5097
RightForeArm  55.4543 18.7175 3.38495
RightHand  -1.5377 21.8995 -7.56789
LeftUpLeg  -25.1927 35.6759 -13.5982
LeftLeg  17.755 11.8911 2.95491
LeftFoot  1.822 -0.00948078 0.596215
LeftToes  1.04779 1.33192e-006 1.13262e-007
391
root  18.3191 32.9693 -5.58476 -41.8398 -86.266 47.5649
RightUpLeg  2.38033 -1.47068 -6.51375
RightLeg  17.7622 -5.12022 -1.28176
RightFoot  -6.36222 0.0173011 0.688918
RightToes  -36.8571 -0.193876 -0.296689
Spine  6.29753 0.387022 0.443323
Spine1  11.7652 2.71931 -2.17224
HEad  -5.46783 -10.4745 31.1507
LeftShoulder1  0 -2.42657e-020 -4.95415e-022
LeftArm  -45.6391 9.25445 -83.3315
LeftForeArm  72.9541 -14.3967 -2.51361
LeftHand  0.288864 -9.71059 -3.77226
RightShoulder  0 2.42657e-020 1.07489e-018
RightArm  -28.3888 11.8563 89.0896
RightForeArm  51.3258 21.3734 3.9241
RightHand  -1.40672 22.2073 -6.79063
LeftUpLeg  -26.6037 37.2503 -13.6157
LeftLeg  17.1239 11.77 2.78925
LeftFoot  3.67378 -0.0327937 1.02251
LeftToes  0.937441 1.33192e-006 1.13262e-007
392
root  19.3405 32.9088 -6.16261 -40.9645 -87.7409 46.284
RightUpLeg  0.716375 -2.26632 -4.76134
RightLeg  18.0598 -3.99762 -1.0237
RightFoot  -7.66249 0.0179004 0.644905
RightToes  -34.0241 -0.172591 -0.278939
Spine  6.83062 -0.00910223 1.25927
Spine1  13.021 1.74847 -0.578956
HEad  -3.12385 -11.8936 28.3631
LeftShoulder1  0 -2.42657e-020 -4.95415e-022
LeftArm  -43.3406 4.68668 -83.3343
LeftForeArm  69.3664 -13.8173 -2.41499
LeftHand  0.283315 -9.42563 -3.80833
RightShoulder  0 2.42657e-020 1.07489e-018
RightArm  -26.4163 12.1349 88.7868
RightForeArm  48.8604 24.1663 4.50926
RightHand  -1.33545 22.1577 -6.44426
LeftUpLeg  -28.6215 38.9277 -13.075
LeftLeg  16.9343 11.1837 2.61347
LeftFoot  5.38147 -0.0634876 1.35082
LeftToes  1.2354 1.33192e-006 1.13262e-007
393
root  20.3761 32.8541 -6.76758 13.3837 -88.7462 -8.39612
RightUpLeg  -1.00822 -2.57031 -2.08647
RightLeg  18.545 -3.38885 -0.898972
RightFoot  -7.90157 0.01325 0.569451
RightToes  -32.9117 -0.164477 -0.271685
Spine  7.36358 -0.367905 2.36188
Spine1  14.2744 0.709704 1.71251
HEad  -1.1857 -12.71 25.5023
LeftShoulder1  0 -2.42657e-020 -4.95415e-022
LeftArm  -41.0431 0.658762 -83.9681
LeftForeArm  63.666 -15.4765 -2.74083
LeftHand  0.264958 -9.16806 -3.67644
RightShoulder  0 2.42657e-020 1.07489e-018
RightArm  -25.3852 11.772 87.4855
RightForeArm  47.5667 26.7941 5.08251
RightHand  -1.42428 22.0252 -6.94111
LeftUpLeg  -31.4536 40.1216 -11.9782
LeftLeg  17.9797 10.383 2.62779
LeftFoot  6.65861 -0.0884303 1.52003
LeftToes  1.77556 1.33192e-006 1.13262e-007
394
root  21.3161 32.7971 -7.32868 49.3635 -87.7131 -44.8309
RightUpLeg  -2.13773 -3.91873 0.0128616
RightLeg  18.7018 -2.19832 -0.590189
RightFoot  -7.85552 0.00127258 0.396119
RightToes  -32.8207 -0.163819 -0.271084
Spine  7.88842 -0.799268 3.29431
Spine1  15.369 -0.422274 3.58636
HEad  0.908048 -12.7609 23.2873
LeftShoulder1  0 -2.42657e-020 -4.95415e-022
LeftArm  -37.842 -2.76531 -84.4314
LeftForeArm  56.8868 -18.5762 -3.35298
LeftHand  0.208129 -8.68155 -3.11384
RightShoulder  0 2.42657e-020 1.07489e-018
RightArm  -25.7248 10.8426 86.0438
RightForeArm  45.7626 28.5547 5.48356
RightHand  -1.51045 21.8174 -7.45765
LeftUpLeg  -33.9695 41.0325 -11.0897
LeftLeg  19.2153 8.29991 2.29546
LeftFoot  8.3386 -0.111278 1.52641
LeftToes  1.63753 1.33192e-006 1.13262e-007
395
root  22.1365 32.8124 -7.79939 48.9125 -86.8508 -44.4216
RightUpLeg  -3.74824 -4.88817 1.40447
RightLeg  19.3196 -1.96794 -0.55154
RightFoot  -7.43355 -0.00181038 0.349713
RightToes  -32.467 -0.161273 -0.268741
Spine  8.10446 -1.27435 3.88842
Spine1  15.7008 -1.5639 4.8201
HEad  3.24937 -12.4603 22.0032
LeftShoulder1  0 -2.42657e-020 -4.95415e-022
LeftArm  -34.9092 -5.23441 -84.9114
LeftForeArm  51.2208 -21.7805 -4.00574
LeftHand  0.13529 -8.27471 -2.24195
RightShoulder  0 2.42657e-020 1.07489e-018
RightArm  -27.6637 9.46937 84.6736
RightForeArm  41.3079 28.2469 5.41939
RightHand  -1.28741 22.0344 -6.23726
LeftUpLeg  -35.1674 39.0032 -9.17187
LeftLeg  20.7738 3.35859 1.02956
LeftFoot  11.6323 -0.100758 0.989131
LeftToes  1.57364 1.33192e-006 1.13262e-007
396
root  22.8515 32.9353 -8.15464 39.5222 -86.847 -34.9537
RightUpLeg  -5.3048 -4.73666 1.79666
RightLeg  19.8547 -2.54117 -0.737649
RightFoot  -6.72755 -0.00380937 0.382171
RightToes  -30.9535 -0.150542 -0.258538
Spine  8.07787 -1.54632 3.98887
Spine1  15.5026 -2.22194 5.17106
HEad  5.37829 -12.2888 21.9978
LeftShoulder1  0 -2.42657e-020 -4.95415e-022
LeftArm  -32.0836 -6.76985 -85.4157
LeftForeArm  47.4021 -25.1814 -4.72713
LeftHand  0.0768607 -8.24456 -1.43758
RightShoulder  0 2.42657e-020 1.07489e-018
RightArm  -33.3297 7.96567 83.9365
RightForeArm  37.1521 25.8426 4.88677
RightHand  -0.680804 21.2026 -3.26716
LeftUpLeg  -35.1883 35.2331 -7.04303
LeftLeg  22.8606 -0.53421 -0.188539
LeftFoot  15.1312 -0.0167378 0.126012
LeftToes  -3.05646 1.33192e-006 1.13262e-007
397
root  23.4492 33.1199 -8.43571 25.5514 -86.9216 -21.0616
RightUpLeg  -5.86466 -4.2637 1.77114
RightLeg  19.1007 -3.488 -0.96172
RightFoot  -5.53359 -0.00180737 0.389472
RightToes  -29.3144 -0.139229 -0.247173
Spine  7.8452 -1.68314 3.82284
Spine1  14.9628 -2.65445 5.20282
HEad  6.98173 -12.7134 22.2156
LeftShoulder1  0 -2.42657e-020 -4.95415e-022
LeftArm  -27.796 -7.23322 -85.6937
LeftForeArm  44.491 -29.2005 -5.63234
LeftHand  0.0895333 -8.19794 -1.62064
RightShoulder  0 2.42657e-020 1.07489e-018
RightArm  -41.4728 5.79137 83.3306
RightForeArm  33.4616 23.0584 4.29528
RightHand  -0.0788277 18.8293 -0.105429
LeftUpLeg  -34.3701 32.0409 -5.40132
LeftLeg  25.2415 -2.90811 -1.15144
LeftFoot  16.1599 0.0929189 -0.654526
LeftToes  -17.5029 1.33192e-006 1.13262e-007
398
root  23.9952 33.3 -8.62511 6.38113 -86.971 -2.15767
RightUpLeg  -6.14224 -3.56919 1.25967
RightLeg  18.3868 -4.49639 -1.17851
RightFoot  -4.52061 -0.000152178 0.373751
RightToes  -27.444 -0.126722 -0.233815
Spine  7.69199 -1.80841 3.46377
Spine1  14.5555 -3.1013 4.98823
HEad  7.36937 -13.1461 21.8318
LeftShoulder1  0 -2.42657e-020 -4.95415e-022
LeftArm  -22.9076 -7.18439 -85.492
LeftForeArm  42.9058 -33.513 -6.68668
LeftHand  0.172279 -8.41672 -2.71318
RightShoulder  0 2.42657e-020 1.07489e-018
RightArm  -49.2195 3.35798 82.5617
RightForeArm  30.4865 20.7826 3.82995
RightHand  0.166378 16.9771 1.48532
LeftUpLeg  -32.8336 28.7093 -4.0745
LeftLeg  28.394 -3.4182 -1.57523
LeftFoot  12.1254 0.071438 -0.672608
LeftToes  -20.0249 1.33192e-006 1.13262e-007
399
root  24.4947 33.4343 -8.76249 -10.7262 -86.8177 14.6366
RightUpLeg  -6.52234 -2.94303 0.665378
RightLeg  18.1087 -5.21719 -1.3396
RightFoot  -3.74273 -0.00162257 0.327949
RightToes  -26.2132 -0.118733 -0.224805
Spine  7.58373 -1.94477 3.12408
Spine1  14.2379 -3.6066 4.84561
HEad  6.8406 -13.8282 20.8878
LeftShoulder1  0 -2.42657e-020 -4.95415e-022
LeftArm  -18.5988 -6.86457 -85.2359
LeftForeArm  43.5461 -37.3997 -7.73135
LeftHand  0.279588 -9.49463 -3.73835
RightShoulder  0 2.42657e-020 1.07489e-018
RightArm  -54.6921 0.84943 81.2606
RightForeArm  29.7772 19.0702 3.48834
RightHand  0.105941 16.2157 1.11409
LeftUpLeg  -30.8607 24.7082 -2.72466
LeftLeg  31.9465 -1.04192 -0.564143
LeftFoot  7.95287 0.0095807 -0.137834
LeftToes  -16.4958 1.33192e-006 1.13262e-007
400
root  24.9481 33.5194 -8.90204 -18.2844 -86.7765 21.9656
RightUpLeg  -6.97555 -2.51656 0.518286
RightLeg  17.9436 -5.5566 -1.40929
RightFoot  -2.89223 -0.00358656 0.235535
RightToes  -25.997 -0.11735 -0.223205
Spine  7.49097 -2.08232 2.99408
Spine1  14.0013 -4.12179 5.02176
HEad  5.83534 -14.8482 19.8363
LeftShoulder1  0 -2.42657e-020 -4.95415e-022
LeftArm  -15.6657 -6.26897 -85.5379
LeftForeArm  46.2627 -40.6297 -8.68504
LeftHand  0.323058 -10.7116 -3.81733
RightShoulder  0 2.42657e-020 1.07489e-018
RightArm  -57.6623 -1.4635 79.4514
RightForeArm  31.8619 17.8306 3.24404
RightHand  -0.146381 16.2248 -0.65716
LeftUpLeg  -28.6557 21.3902 -1.35152
LeftLeg  35.3124 1.9519 1.19732
LeftFoot  4.1994 -0.00430526 0.117419
LeftToes  -14.434 1.33192e-006 1.13262e-007
